# xmcd
#
# Track frame offsets:
#	150
#	13195
#	24867
#	41500
#	53885
#	67350
#	79210
#	92347
#	106957
#	122425
#
# Disc length: 1787 seconds
#
# Revision: 0
# Processed by: cddbd v1.4PL0 Copyright (c) Steve Scherf et al.
# Submitted via: AudioConverter v4.05 Copyright (c) Dennis Rebentrost
#
DISCID=7806f90a
DTITLE=Originales de San Juan - Nac_ Con Suerte De Rey
DYEAR=1999
DGENRE=Norte_o
TTITLE0=El Crudo
TTITLE1=Nac_ con suerte de Rey
TTITLE2=Sangre de Traficante
TTITLE3=Masacre en Guadalajara
TTITLE4=El gato de Oaxaca
TTITLE5=El encabronado
TTITLE6=Nariz de 45
TTITLE7=El lechero
TTITLE8=El G_ero
TTITLE9=El Marihuanero
EXTD=
EXTT0=
EXTT1=
EXTT2=
EXTT3=
EXTT4=
EXTT5=
EXTT6=
EXTT7=
EXTT8=
EXTT9=
PLAYORDER=
